# xmcd
#
# Track frame offsets: 
#        150
#        8238
#        43052
#        51066
#        72189
#        89288
#        104377
#        128182
#        139625
#        148763
#        179293
#        207945
#        236186
#        262564
#        287454
#        314258
#        336816
#
# Disc length: 4761 seconds
#
# Revision: 0
# Processed by: cddbd v1.5.2PL0 Copyright (c) Steve Scherf et al.
# Submitted via: ExactAudioCopy v0.99pb4
#
DISCID=f2129711
DTITLE=Leszek Winder - Bezdomne psy
DYEAR=2006
DGENRE=Blues
TTITLE0=Czesc  I
TTITLE1=Czesc II
TTITLE2=Czesc III
TTITLE3=Czesc IV
TTITLE4=Czesc V
TTITLE5=Czesc VI
TTITLE6=Czesc VII
TTITLE7=Czesc VIII
TTITLE8=Czesc IX
TTITLE9=Czesc X
TTITLE10=czesc 1
TTITLE11=czesc 2
TTITLE12=czesc 3
TTITLE13=czesc 4
TTITLE14=czesc 5
TTITLE15=czesc 6
TTITLE16=czesc 7
EXTD=
EXTT0=
EXTT1=
EXTT2=
EXTT3=
EXTT4=
EXTT5=
EXTT6=
EXTT7=
EXTT8=
EXTT9=
EXTT10=
EXTT11=
EXTT12=
EXTT13=
EXTT14=
EXTT15=
EXTT16=
PLAYORDER=
